<svg xmlns="http://www.w3.org/2000/svg" width="27" height="27" viewBox="0 0 27 27"><defs><style>.a{fill:#001c32;stroke:#fafaff;}.b{fill:#fafaff;}</style></defs><g transform="translate(0.5 0.5)"><path class="a" d="M93.575,78.5a13,13,0,1,0,13,13A13,13,0,0,0,93.575,78.5Z" transform="translate(-80.575 -78.5)"/><g transform="translate(8.691 6.018)"><rect class="b" width="2.407" height="2.52" transform="translate(2.882 11.443)"/><path class="b" d="M98.461,91.111a6.7,6.7,0,0,1-1.07,1.494c-.2.215-.4.406-.581.57s-.354.326-.509.481a2.452,2.452,0,0,0-.385.49,2.206,2.206,0,0,0-.314.756,5.962,5.962,0,0,0-.047.86H93.129a6.221,6.221,0,0,1,.128-1.269,3.951,3.951,0,0,1,.424-1.137,2.96,2.96,0,0,1,.57-.8,8.786,8.786,0,0,1,.7-.6,7.575,7.575,0,0,0,.866-.8,2.225,2.225,0,0,0,.514-.852,3.242,3.242,0,0,0,.123-.909,2.525,2.525,0,0,0-.066-.589,1.138,1.138,0,0,0-.238-.476,1.452,1.452,0,0,0-.685-.5,2.68,2.68,0,0,0-.9-.148,2.768,2.768,0,0,0-.745.1,1.584,1.584,0,0,0-.605.31,1.346,1.346,0,0,0-.418.56,1.845,1.845,0,0,0-.124.733H90.266a4.817,4.817,0,0,1,.518-1.764,3.565,3.565,0,0,1,1.118-1.3,3.868,3.868,0,0,1,1.222-.6,4.835,4.835,0,0,1,1.365-.2,5.94,5.94,0,0,1,1.974.324,3.446,3.446,0,0,1,1.546,1.065,3.383,3.383,0,0,1,.652,1.122,3.914,3.914,0,0,1,.223,1.294A3.8,3.8,0,0,1,98.461,91.111Z" transform="translate(-90.266 -85.518)"/></g></g></svg>