<svg xmlns="http://www.w3.org/2000/svg" width="31.046" height="28" viewBox="0 0 31.046 28"><defs><style>.a{fill:#fafaff;}</style></defs><path class="a" d="M353.661,29.985,358.644,32,354.933,48.4l-1.833,8.1h-5.439l5.6-24.752,0-.012.4-1.76m-.447-.852-.562,2.486h0l-5.771,25.514H353.6l1.943-8.591,3.828-16.923-6.155-2.486Z" transform="translate(-346.881 -29.133)"/><path class="a" d="M362.94,33.733l4.983,2.013-3.149,13.92-1.547,6.843h-5.439l3.656-16.162,1.1-4.843.4-1.771m-.446-.852-.563,2.486h0l-1.1,4.843-3.828,16.923h6.717l1.658-7.329,3.265-14.437-6.154-2.486Z" transform="translate(-346.881 -29.133)"/><path class="a" d="M372.219,37.481l4.984,2.013-3.849,17.015h-5.439l3.093-13.676,1.211-5.352m-.446-.852L370.4,42.7l-3.265,14.437h6.717l4.075-18.018-6.154-2.486Z" transform="translate(-346.881 -29.133)"/><path class="a" d="M355.541,48.542l1.467,8.591.36-1.594L355.9,46.948Zm3.828-16.923-.36,1.593,1.466,8.591.361-1.593-1.467-8.591h0" transform="translate(-346.881 -29.133)"/><path class="a" d="M367.446,55.755l-1.752-7.329-.311,1.378,1.752,7.329Zm.891-19.011,1.752,7.329L370.4,42.7l-1.752-7.329Z" transform="translate(-346.881 -29.133)"/></svg>