<svg xmlns="http://www.w3.org/2000/svg" width="27" height="27" viewBox="0 0 27 27"><defs><style>.a{fill:#001c32;}.a,.b{stroke:#317aff;}.b{fill:none;stroke-width:1.349px;}.c{fill:#317aff;}</style></defs><g transform="translate(0.5 0.5)"><path class="a" d="M182.607,78.5a13,13,0,1,0,13,13A13,13,0,0,0,182.607,78.5Z" transform="translate(-169.607 -78.5)"/><g transform="translate(4.324 7.68)"><g transform="translate(9.301 1.046)"><line class="b" x2="8.05" transform="translate(0 4.344)"/><line class="b" x2="8.05"/><line class="b" x2="8.05" transform="translate(0 8.688)"/></g><circle class="c" cx="2.283" cy="2.283" r="2.283" transform="translate(0.714 0.792) rotate(-9.992)"/><path class="c" d="M180.431,97.566h.392a.814.814,0,0,0,.817-.911c-.308-2.166-1.691-3.8-3.35-3.8s-3.043,1.634-3.351,3.8a.814.814,0,0,0,.817.911h4.675Z" transform="translate(-174.931 -87.165)"/></g></g></svg>