<svg id="Layer_1" data-name="Layer 1" xmlns="http://www.w3.org/2000/svg" viewBox="0 0 30 30"><defs><style>.cls-1{fill:#001c32;}</style></defs><g id="Group_1214" data-name="Group 1214"><path id="Ellipse_84" data-name="Ellipse 84" class="cls-1" d="M15,1A14,14,0,1,1,1,15,14,14,0,0,1,15,1m0-1A15,15,0,1,0,30,15,15,15,0,0,0,15,0Z"/><g id="Group_1213" data-name="Group 1213"><path id="Path_1152" data-name="Path 1152" class="cls-1" d="M4.49,9.72H7.13v8.81H10.3v2.25H4.49Z"/><path id="Path_1153" data-name="Path 1153" class="cls-1" d="M10.92,17.74v-5c0-2.11,1.49-3.21,3.44-3.21s3.46,1,3.46,3.21v5c0,2.19-1.55,3.23-3.44,3.23C12.33,21,10.92,20,10.92,17.74Zm4.23.06V12.67a.75.75,0,0,0-.68-.81h-.11a.71.71,0,0,0-.76.81v5.12a.78.78,0,0,0,1.55.22.74.74,0,0,0,0-.21Z"/><path id="Path_1154" data-name="Path 1154" class="cls-1" d="M18.75,17.83V12.56c0-2,1.57-3,3.42-3s3.34.9,3.34,2.82V13.5H23.1v-1a.79.79,0,0,0-.82-.75h-.05a.72.72,0,0,0-.79.66.33.33,0,0,0,0,.14v5.22c0,.51.26.87.77.87s.73-.27.73-.76V16.87H22v-2h3.55v3.15c0,1.89-1.32,2.9-3.31,2.9S18.75,19.93,18.75,17.83Z"/></g></g></svg>