<svg id="prefix__Layer_1" data-name="Layer 1" xmlns="http://www.w3.org/2000/svg" viewBox="0 0 41 29.97">
    <defs>
        <style>
            .prefix__cls-2 {
                fill: #001c32
            }
        </style>
    </defs>
    <g id="prefix__Rectangle_1771" data-name="Rectangle 1771">
        <rect y="-.03" width="41" height="30" rx="8" fill="none" />
        <path class="prefix__cls-2"
            d="M33 30H8a8 8 0 01-8-8V8a8 8 0 018-8h25a8 8 0 018 8v14a8 8 0 01-8 8zM8 1a7 7 0 00-7 7v14a7 7 0 007 7h25a7 7 0 007-7V8a7 7 0 00-7-7z" />
    </g>
    <g id="prefix__Group_1213" data-name="Group 1213">
        <path id="prefix__Path_1152" data-name="Path 1152" class="prefix__cls-2" d="M8 7.64h3.26v10.9h3.92v2.78H8z" />
        <path id="prefix__Path_1153" data-name="Path 1153" class="prefix__cls-2"
            d="M15.94 17.56V11.4c0-2.61 1.85-4 4.27-4s4.28 1.22 4.28 4v6.14c0 2.7-1.92 4-4.26 4-2.54-.01-4.29-1.23-4.29-3.98zm5.24.08v-6.36a.91.91 0 00-.83-1h-.14a.87.87 0 00-.95 1v6.34a1 1 0 101.92.18.43.43 0 000-.16z" />
        <path id="prefix__Path_1154" data-name="Path 1154" class="prefix__cls-2"
            d="M25.63 17.68v-6.53c0-2.44 1.94-3.72 4.24-3.72C32 7.43 34 8.54 34 10.92v1.4h-3v-1.19a1 1 0 00-1-.92h-.05A.89.89 0 0029 11a.61.61 0 000 .19v6.45a.94.94 0 001 1.07c.61 0 .9-.32.9-.94v-1.3h-1.3v-2.41H34V18c0 2.34-1.63 3.58-4.09 3.58s-4.28-1.31-4.28-3.9z" />
    </g>
</svg>