<svg xmlns="http://www.w3.org/2000/svg" width="271.383" height="34.793" viewBox="0 0 271.383 34.793"><defs><style>.a{fill:#fff;}</style></defs><g transform="translate(-198.299 -66.461)"><path class="a" d="M253.633,66.461v6.957H218.839V66.461Zm0,13.916v6.959H218.839V80.377Zm0,13.918v6.957H218.839V94.3Z" transform="translate(26.776 0)"/><path class="a" d="M315.256,66.461v6.957H280.462V66.461Zm0,13.916v6.959H280.462V80.377Zm0,13.918v6.957H280.462V94.3Z" transform="translate(107.108 0)"/><path class="a" d="M294.714,66.461h-4.92L277.318,78.937,264.841,66.461h-4.92v4.92L272.4,83.857,259.921,96.333v4.92h4.92l12.476-12.476,12.476,12.476h4.92v-4.92L282.238,83.857l12.476-12.476Z" transform="translate(80.331 0)"/><path class="a" d="M274.173,66.461h-4.92L256.777,78.937,244.3,66.461h-4.92v4.92l12.476,12.476L239.38,96.333v4.92h4.92l12.476-12.476,12.476,12.476h4.92v-4.92L261.7,83.857l12.476-12.476Z" transform="translate(53.554 0)"/><path class="a" d="M226.133,66.461H198.3v34.791h27.834L233.09,94.3V73.418Zm0,24.948L223.245,94.3H205.258V73.418h17.987l2.889,2.889Z" transform="translate(0 0)"/><path class="a" d="M301,73.418V94.3l6.959,6.957H335.8V66.461H307.962Zm6.959,2.889,2.886-2.889h17.989V94.3H310.849l-2.886-2.886Z" transform="translate(133.886 0)"/></g></svg>