<svg id="Layer_1" data-name="Layer 1" xmlns="http://www.w3.org/2000/svg" viewBox="0 0 173.21 200"><defs><style>.cls-1{fill:#001c32;}</style></defs><path class="cls-1" d="M38,171.94l0,0c-.33-.61-.66-1.22-1-1.83l-.66-1.3c-.3-.61-.59-1.22-.88-1.84-.21-.44-.42-.89-.62-1.33-.28-.63-.55-1.27-.82-1.9-.18-.45-.37-.89-.55-1.34-.27-.66-.52-1.33-.77-2-.16-.43-.33-.85-.48-1.28-.26-.75-.51-1.5-.76-2.26l-.36-1.1q-.52-1.69-1-3.42a88.94,88.94,0,0,1,39.7-98.93L69,53.24c-.82-.12-1.63-.24-2.45-.33-.44-.06-.88-.11-1.33-.15-.92-.1-1.85-.17-2.78-.23l-1-.07a76.12,76.12,0,0,0-7.85,0h-.11a76.67,76.67,0,0,0-8,.81l-.19,0c-1.24.19-2.49.42-3.72.68l-.58.12c-1.22.26-2.44.55-3.65.87A76.68,76.68,0,0,0,0,77.94V150Z"/><path class="cls-1" d="M171.1,140.26c-.64.51-1.29,1-1.94,1.49l-.77.59c-.92.67-1.85,1.33-2.79,2l-.7.45c-.73.48-1.45,1-2.19,1.42l-1.09.65c-.63.38-1.25.75-1.88,1.11l-1.23.68c-.61.33-1.21.66-1.83,1-.43.23-.86.44-1.3.66l-1.83.89-1.34.61-1.9.82-1.34.55c-.66.27-1.33.52-2,.77l-1.29.48c-.75.27-1.5.51-2.25.76l-1.11.36c-1.13.35-2.27.69-3.42,1A88.94,88.94,0,0,1,40,116.78c-.06.4-.13.8-.19,1.2s-.13.9-.19,1.35c-.09.67-.16,1.34-.23,2,0,.43-.09.85-.13,1.28-.06.75-.11,1.49-.15,2.24,0,.36,0,.73-.06,1.09-.05,1.11-.08,2.23-.08,3.34a76.76,76.76,0,0,0,8.34,34.89c.74,1.45,1.53,2.86,2.36,4.25a76.9,76.9,0,0,0,17.24,20.17L86.6,200l86.61-50V138.54l-1.09.88C171.78,139.7,171.45,140,171.1,140.26Z"/><path class="cls-1" d="M0,50V61.46l1.1-.9,1-.82c.65-.52,1.32-1,2-1.53l.72-.54c.92-.68,1.86-1.34,2.81-2l.63-.41c.74-.5,1.49-1,2.26-1.46.34-.22.69-.42,1-.63.64-.38,1.28-.77,1.93-1.14l1.19-.65c.62-.34,1.24-.68,1.87-1l1.26-.64c.62-.31,1.25-.61,1.89-.91L21,48.26c.65-.29,1.3-.57,2-.84l1.28-.53c.69-.28,1.39-.54,2.09-.81l1.2-.44c.79-.28,1.59-.55,2.39-.81l1-.32c1.14-.35,2.29-.69,3.45-1a88.23,88.23,0,0,1,14.27-2.59q4.34-.43,8.72-.43a89,89,0,0,1,75.93,42.72c.07-.4.13-.79.19-1.19s.14-.91.19-1.36c.09-.67.16-1.34.23-2,0-.43.1-.86.13-1.3.07-.74.11-1.48.15-2.23,0-.36,0-.72.07-1.09.05-1.11.07-2.23.07-3.34a76.73,76.73,0,0,0-27.93-59.31L86.6,0Z"/><path class="cls-1" d="M135.2,28.06c.35.63.69,1.27,1,1.91l.6,1.18c.32.65.64,1.3.94,2,.2.41.38.82.57,1.24.3.66.58,1.33.86,2,.18.41.35.83.52,1.25.28.69.55,1.39.81,2.09l.45,1.22c.27.76.53,1.54.78,2.32.11.35.23.69.34,1.05.36,1.13.69,2.27,1,3.42a89.08,89.08,0,0,1,3,23,88.64,88.64,0,0,1-26,62.79,88.83,88.83,0,0,1-16.71,13.14l.84.13c.81.12,1.61.24,2.42.33l1.35.15c.92.1,1.83.17,2.75.23l1,.07c1.25.07,2.51.11,3.77.11h0q2,0,4-.09h.1a76.78,76.78,0,0,0,8-.81l.16,0c1.26-.19,2.51-.42,3.75-.68l.55-.12q1.84-.39,3.66-.87a76.67,76.67,0,0,0,37.37-23V50Z"/></svg>