<svg id="Layer_1" data-name="Layer 1" xmlns="http://www.w3.org/2000/svg" viewBox="0 0 71.92 25"><defs><style>.cls-1{fill:#fff;}</style></defs><path id="Path_1170" data-name="Path 1170" class="cls-1" d="M71.65,9.93H59.42v5.14h6.9a7.37,7.37,0,1,1-6.9-9.93V0a12.48,12.48,0,0,0-9.93,4.92A12.49,12.49,0,0,0,32,2.56a13,13,0,0,0-1.51,1.36,9.33,9.33,0,0,0-13-2.19A9.51,9.51,0,0,0,16.1,2.91,9.33,9.33,0,0,0,0,9.34V25H5.14V9.34a4.2,4.2,0,1,1,8.4,0h0V25h5.13V9.34a4.2,4.2,0,1,1,8.4,0h0v2.82c0,.11,0,.22,0,.34A12.5,12.5,0,0,0,39.56,25h0V19.86A7.35,7.35,0,0,1,32.2,12.5h0v-.35A7.36,7.36,0,0,1,46.46,9.93H39.57v5.14H47.2A12.5,12.5,0,0,0,71.66,9.93h0Z"/></svg>