<svg id="Layer_1" data-name="Layer 1" xmlns="http://www.w3.org/2000/svg" viewBox="0 0 292.79 100"><defs><style>.cls-1{fill:#fafaff;}</style></defs><polygon class="cls-1" points="56.25 60.63 18.54 0.98 0 0.98 0 99.02 18.51 99.02 18.51 37.23 56.24 96.65 94 37.35 94 99.02 112.5 99.02 112.5 0.98 93.97 0.98 56.25 60.63"/><path class="cls-1" d="M260.79,59.06h14.12V74.63c-5.42,4.12-12.29,6.13-19.7,6.13-17.64,0-31.37-13.48-31.37-30.76s13.73-30.76,31.37-30.76c8.83,0,16.92,2.82,22.67,8.7,1.11,1.1.52.56,1.66,1.7l10.32-16.21A49.83,49.83,0,0,0,255.21,0c-27.94,0-50.49,22.06-50.49,50s22.55,50,50.49,50c14.83,0,27.94-5.88,37.13-15.93l.45-.49V41.05H272.26Z"/><polygon class="cls-1" points="195.16 41.06 157.23 41.06 157.24 41.07 150.1 41.07 146.85 41.07 128.35 41.07 128.35 71.15 128.35 99.02 195.16 99.02 195.16 81 146.85 81 146.85 71.15 146.85 58.96 183.77 58.96 195.16 41.07 195.16 41.06"/><polygon class="cls-1" points="150.1 18.99 195.16 18.99 195.16 0.98 146.85 0.98 139.81 0.98 128.35 18.99 146.85 18.99 150.1 18.99"/></svg>