<svg  xmlns="http://www.w3.org/2000/svg" viewBox="0 0 42 42">
    <path d="M24 42h-6l-1.62-5.36a15.67 15.67 0 01-1.73-.64c-.49-.21-1-.45-1.45-.7L8.27 38 4 33.73l2.68-4.93c-.26-.48-.49-1-.7-1.45a15.67 15.67 0 01-.62-1.74L0 24v-6l5.36-1.62A15.67 15.67 0 016 14.65c.21-.49.44-1 .7-1.45L4 8.27 8.27 4l4.93 2.68c.47-.25 1-.49 1.45-.7a16.43 16.43 0 011.74-.62L18 0h6l1.62 5.36a17.26 17.26 0 011.73.64c.49.21 1 .45 1.45.7L33.73 4 38 8.27l-2.68 4.93c.25.47.49 1 .7 1.45a15.67 15.67 0 01.62 1.74L42 18v6l-5.36 1.62a15.67 15.67 0 01-.64 1.73c-.21.49-.45 1-.7 1.45l2.7 4.93L33.73 38l-4.93-2.68c-.47.25-1 .49-1.45.7a16.43 16.43 0 01-1.74.62zm-5.26-1h4.54l1.56-5.17.26-.07a16.81 16.81 0 001.9-.64 15.6 15.6 0 001.59-.78l.23-.14 4.77 2.56 3.2-3.2-2.59-4.77.14-.23a16.69 16.69 0 00.78-1.56 16.13 16.13 0 00.66-1.88l.07-.26L41 23.27v-4.54l-5.17-1.56-.07-.26a16.13 16.13 0 00-.64-1.91 16.69 16.69 0 00-.78-1.59l-.14-.23 2.56-4.77-3.2-3.2-4.77 2.59-.23-.14A15.6 15.6 0 0027 6.88a15 15 0 00-1.88-.65l-.26-.08L23.27 1h-4.54l-1.55 5.15-.27.08a15 15 0 00-1.91.65 15.6 15.6 0 00-1.59.78l-.23.14-4.74-2.56-3.2 3.2 2.56 4.77-.14.23c-.29.56-.55 1.06-.78 1.56a14.42 14.42 0 00-.65 1.88l-.08.26L1 18.73v4.54l5.17 1.56.08.26A14.42 14.42 0 006.88 27c.23.53.49 1.07.78 1.59l.14.23-2.56 4.74 3.2 3.2 4.77-2.56.23.14a15.6 15.6 0 001.59.78 16.13 16.13 0 001.88.66l.27.07zM21 33.81A12.81 12.81 0 1133.81 21 12.83 12.83 0 0121 33.81zm0-24.64A11.83 11.83 0 1032.83 21 11.83 11.83 0 0021 9.17z" />
    <path d="M14.91 16.48h3l1.78 9h-2.2l-.32-1.68h-1.79l-.3 1.68H13zm1.91 5.62l-.51-3.19-.54 3.19zM20.39 16.49h3.18c1.54 0 2.39.92 2.39 2.84s-.73 3.08-2.44 3.08h-.9v3.11h-2.23zm2.78 4.17c.39 0 .61-.4.61-1.28s-.21-1.12-.61-1.12h-.55v2.4zM26.74 16.49H29v9h-2.26z" />
</svg>