<svg xmlns="http://www.w3.org/2000/svg" viewBox="0 0 42 42">
    <path d="M15.83 24.42H2.73A2.73 2.73 0 010 21.69v-19A2.73 2.73 0 012.73 0h13.1a2.73 2.73 0 012.73 2.73v19a2.73 2.73 0 01-2.73 2.69zM2.73 1A1.75 1.75 0 001 2.73v19a1.75 1.75 0 001.75 1.75h13.1a1.75 1.75 0 001.75-1.75v-19A1.75 1.75 0 0015.83 1zM39.27 12.7h-13.1a2.73 2.73 0 01-2.73-2.7V2.73A2.73 2.73 0 0126.17 0h13.1A2.73 2.73 0 0142 2.73V10a2.73 2.73 0 01-2.73 2.7zM26.17 1a1.75 1.75 0 00-1.75 1.75V10a1.75 1.75 0 001.75 1.75h13.1A1.75 1.75 0 0041 10V2.73A1.75 1.75 0 0039.27 1zM15.83 42H2.73A2.73 2.73 0 010 39.27V32a2.73 2.73 0 012.73-2.7h13.1a2.73 2.73 0 012.73 2.7v7.24A2.73 2.73 0 0115.83 42zM2.73 30.28A1.75 1.75 0 001 32v7.24A1.75 1.75 0 002.73 41h13.1a1.75 1.75 0 001.75-1.75V32a1.75 1.75 0 00-1.75-1.75zM39.27 42h-13.1a2.73 2.73 0 01-2.73-2.73v-19a2.73 2.73 0 012.73-2.73h13.1A2.73 2.73 0 0142 20.31v19A2.73 2.73 0 0139.27 42zm-13.1-23.44a1.75 1.75 0 00-1.75 1.75v19A1.75 1.75 0 0026.17 41h13.1A1.75 1.75 0 0041 39.27v-19a1.75 1.75 0 00-1.75-1.75z" />
</svg>