<svg id="Layer_1" data-name="Layer 1" xmlns="http://www.w3.org/2000/svg" viewBox="0 0 42 28.78"><defs><style>.cls-1{fill:#317aff;}</style></defs><path class="cls-1" d="M8.88,5.13h6.06l3.53,18.49H14l-.62-3.44H9.82l-.6,3.44H5.16Zm3.81,11.5-1-6.53H11.6l-1.08,6.53Z"/><path class="cls-1" d="M19.8,5.15h6.32c3.05,0,4.73,1.9,4.73,5.81S29.4,17.25,26,17.25H24.22v6.37H19.8Zm5.51,8.53c.78,0,1.22-.81,1.22-2.62s-.41-2.28-1.22-2.28H24.22v4.9Z"/><path class="cls-1" d="M32.42,5.15h4.43V23.62H32.42Z"/><path class="cls-1" d="M42,28.78H0V0H42Zm-41-1H41V1H1Z"/></svg>