<?xml version="1.0" encoding="utf-8"?>
<!-- Generator: Adobe Illustrator 25.3.0, SVG Export Plug-In . SVG Version: 6.00 Build 0)  -->
<svg version="1.1" id="Layer_1" xmlns="http://www.w3.org/2000/svg" xmlns:xlink="http://www.w3.org/1999/xlink" x="0px" y="0px"
	 viewBox="0 0 42 23.8" style="enable-background:new 0 0 42 23.8;" xml:space="preserve">
<style type="text/css">
	.st0{fill:#C8C8D4;}
</style>
<path class="st0" d="M2.4,0l0.8,1.2c0,0,1.8,2.8,3.4,5.4c3.9-3.2,8.8-5,13.9-5c12,0,21.6,9.7,21.6,21.7h-1c0-4.3-2.1-8.4-5.5-10.9
	c-6-4.4-14.5-3.1-18.9,2.9l8.8,2.3L0,23.8L2.4,0z M15,15.8l0.4-0.6c0.9-1.4,2.1-2.7,3.5-3.7c6.4-4.8,15.5-3.4,20.3,3
	c-0.8-1.8-1.9-3.4-3.2-4.9C28.4,1,15.3,0.1,6.7,7.6L6.3,8L6,7.5C5,5.8,3.8,4,3.1,2.8l-2,19.7l20.3-5L15,15.8z"/>
</svg>
