<svg id="Layer_1" data-name="Layer 1" xmlns="http://www.w3.org/2000/svg" viewBox="0 0 42 42"><defs><style>.cls-1{fill:#c8c8d4;}</style></defs><path class="cls-1" d="M15.83,24.42H2.73A2.73,2.73,0,0,1,0,21.69v-19A2.73,2.73,0,0,1,2.73,0h13.1a2.73,2.73,0,0,1,2.73,2.73v19A2.73,2.73,0,0,1,15.83,24.42ZM2.73,1A1.75,1.75,0,0,0,1,2.73v19a1.75,1.75,0,0,0,1.75,1.75h13.1a1.75,1.75,0,0,0,1.75-1.75v-19A1.75,1.75,0,0,0,15.83,1Z"/><path class="cls-1" d="M39.27,12.7H26.17A2.73,2.73,0,0,1,23.44,10V2.73A2.73,2.73,0,0,1,26.17,0h13.1A2.73,2.73,0,0,1,42,2.73V10A2.73,2.73,0,0,1,39.27,12.7ZM26.17,1a1.75,1.75,0,0,0-1.75,1.75V10a1.75,1.75,0,0,0,1.75,1.75h13.1A1.75,1.75,0,0,0,41,10V2.73A1.75,1.75,0,0,0,39.27,1Z"/><path class="cls-1" d="M15.83,42H2.73A2.73,2.73,0,0,1,0,39.27V32A2.73,2.73,0,0,1,2.73,29.3h13.1A2.73,2.73,0,0,1,18.56,32v7.24A2.73,2.73,0,0,1,15.83,42ZM2.73,30.28A1.75,1.75,0,0,0,1,32v7.24A1.75,1.75,0,0,0,2.73,41h13.1a1.75,1.75,0,0,0,1.75-1.75V32a1.75,1.75,0,0,0-1.75-1.75Z"/><path class="cls-1" d="M39.27,42H26.17a2.73,2.73,0,0,1-2.73-2.73v-19a2.73,2.73,0,0,1,2.73-2.73h13.1A2.73,2.73,0,0,1,42,20.31v19A2.73,2.73,0,0,1,39.27,42ZM26.17,18.56a1.75,1.75,0,0,0-1.75,1.75v19A1.75,1.75,0,0,0,26.17,41h13.1A1.75,1.75,0,0,0,41,39.27v-19a1.75,1.75,0,0,0-1.75-1.75Z"/></svg>