<svg id="Layer_1" data-name="Layer 1" xmlns="http://www.w3.org/2000/svg" viewBox="0 0 42 42"><defs><style>.cls-1{fill:#c8c8d4;}</style></defs><path class="cls-1" d="M24,42H18l-1.62-5.36A15.67,15.67,0,0,1,14.65,36c-.49-.21-1-.45-1.45-.7L8.27,38,4,33.73,6.68,28.8c-.26-.48-.49-1-.7-1.45a15.67,15.67,0,0,1-.62-1.74L0,24V18l5.36-1.62A15.67,15.67,0,0,1,6,14.65c.21-.49.44-1,.7-1.45L4,8.27,8.27,4,13.2,6.68c.47-.25,1-.49,1.45-.7a16.43,16.43,0,0,1,1.74-.62L18,0h6l1.62,5.36A17.26,17.26,0,0,1,27.35,6c.49.21,1,.45,1.45.7L33.73,4,38,8.27,35.32,13.2c.25.47.49,1,.7,1.45a15.67,15.67,0,0,1,.62,1.74L42,18v6l-5.36,1.62A15.67,15.67,0,0,1,36,27.35c-.21.49-.45,1-.7,1.45L38,33.73,33.73,38,28.8,35.32c-.47.25-1,.49-1.45.7a16.43,16.43,0,0,1-1.74.62Zm-5.26-1h4.54l1.56-5.17.26-.07A16.81,16.81,0,0,0,27,35.12a15.6,15.6,0,0,0,1.59-.78l.23-.14,4.77,2.56,3.2-3.2L34.2,28.79l.14-.23A16.69,16.69,0,0,0,35.12,27a16.13,16.13,0,0,0,.66-1.88l.07-.26L41,23.27V18.73l-5.17-1.56-.07-.26A16.13,16.13,0,0,0,35.12,15a16.69,16.69,0,0,0-.78-1.59l-.14-.23,2.56-4.77-3.2-3.2L28.79,7.8l-.23-.14A15.6,15.6,0,0,0,27,6.88a15,15,0,0,0-1.88-.65l-.26-.08L23.27,1H18.73L17.18,6.15l-.27.08A15,15,0,0,0,15,6.88a15.6,15.6,0,0,0-1.59.78l-.23.14L8.44,5.24l-3.2,3.2L7.8,13.21l-.14.23C7.37,14,7.11,14.5,6.88,15a14.42,14.42,0,0,0-.65,1.88l-.08.26L1,18.73v4.54l5.17,1.56.08.26A14.42,14.42,0,0,0,6.88,27c.23.53.49,1.07.78,1.59l.14.23L5.24,33.56l3.2,3.2,4.77-2.56.23.14a15.6,15.6,0,0,0,1.59.78,16.13,16.13,0,0,0,1.88.66l.27.07ZM21,33.81A12.81,12.81,0,1,1,33.81,21,12.83,12.83,0,0,1,21,33.81ZM21,9.17A11.83,11.83,0,1,0,32.83,21,11.83,11.83,0,0,0,21,9.17Z"/><path class="cls-1" d="M14.91,16.48h3l1.78,9H17.49l-.32-1.68H15.38l-.3,1.68H13Zm1.91,5.62-.51-3.19h0l-.54,3.19Z"/><path class="cls-1" d="M20.39,16.49h3.18c1.54,0,2.39.92,2.39,2.84s-.73,3.08-2.44,3.08h-.9v3.11H20.39Zm2.78,4.17c.39,0,.61-.4.61-1.28s-.21-1.12-.61-1.12h-.55v2.4Z"/><path class="cls-1" d="M26.74,16.49H29v9H26.74Z"/></svg>