<svg xmlns="http://www.w3.org/2000/svg" viewBox="0 0 31.05 28">
  <defs>
    <style>
      .a{fill:#fafaff}
    </style>
  </defs>
  <path class="a" d="M6.78.85l4.98 2.02-3.7 16.4-1.84 8.1H.78L6.38 2.6l.4-1.77M6.33 0l-.56 2.49L0 27.99h6.72l1.94-8.59L12.5 2.48 6.34-.01zM16.06 4.6l4.98 2.01-3.15 13.92-1.54 6.85H10.9l3.65-16.17 1.1-4.84.4-1.77m-.44-.85l-.57 2.48-1.1 4.85L10.13 28h6.71l1.66-7.33 3.27-14.44-6.16-2.48zM25.34 8.35l4.98 2.01-3.85 17.02h-5.44l3.1-13.68 1.2-5.35m-.44-.85l-1.37 6.07L20.25 28h6.72L31.05 10 24.89 7.5z"/>
  <path class="a" d="M8.66 19.4l1.47 8.6.36-1.6-1.47-8.59zM12.49 2.5l-.36 1.59 1.46 8.59.37-1.6-1.47-8.58M20.57 26.62L18.8 19.3l-.3 1.38L20.24 28zm.89-19l1.75 7.32.3-1.37-1.74-7.33z"/>
</svg>
