<svg xmlns="http://www.w3.org/2000/svg" width="36" height="36" viewBox="0 0 36 36"><defs><style>.a{fill:#c8c8d4;}</style></defs><g transform="translate(-664.556 -164.146)"><path class="a" d="M682.556,200.146a18,18,0,1,1,18-18A18.02,18.02,0,0,1,682.556,200.146Zm0-35a17,17,0,1,0,17,17A17.018,17.018,0,0,0,682.556,165.146Z"/><rect class="a" width="6.619" height="1" transform="translate(685.938 182.146)"/><rect class="a" width="6.619" height="1" transform="translate(685.938 179.447)"/><rect class="a" width="6.619" height="1" transform="translate(685.938 184.845)"/><path class="a" d="M681.773,182.758a4.286,4.286,0,0,1-4.434,0,8,8,0,0,0-3.781,6.607.738.738,0,0,0,.7.778.515.515,0,0,0,.055,0h10.5a.74.74,0,0,0,.752-.725.493.493,0,0,0,0-.055A8,8,0,0,0,681.773,182.758Z"/><path class="a" d="M679.556,175.146a3.542,3.542,0,0,0-3.488,3.594,3.587,3.587,0,0,0,2.426,3.423,3.4,3.4,0,0,0,2.124,0,3.584,3.584,0,0,0,2.426-3.423A3.541,3.541,0,0,0,679.556,175.146Z"/></g></svg>