<?xml version="1.0" encoding="utf-8"?>
<!-- Generator: Adobe Illustrator 25.3.0, SVG Export Plug-In . SVG Version: 6.00 Build 0)  -->
<svg version="1.1" id="Layer_1" xmlns="http://www.w3.org/2000/svg" xmlns:xlink="http://www.w3.org/1999/xlink" x="0px" y="0px"
	 viewBox="0 0 38.9 38.9" style="enable-background:new 0 0 38.9 38.9;" xml:space="preserve">
<path id="Magnifiying_Glass" d="M30.4,26.6c5.4-7.5,3.7-18-3.8-23.4S8.6-0.5,3.2,7C-2.3,14.5-0.5,25,7,30.4c5.9,4.2,13.7,4.2,19.6,0
	l8.5,8.5l3.8-3.8L30.4,26.6z M22.9,26.7c-5.5,3.4-12.8,1.7-16.2-3.8C3.3,17.4,5,10.1,10.5,6.7S23.3,5,26.7,10.5
	c2.3,3.8,2.3,8.6,0,12.4C25.8,24.5,24.5,25.8,22.9,26.7L22.9,26.7z"/>
</svg>
